<svg version="1.1" viewBox="0.0 0.0 960.0 720.0" fill="none" stroke="none" stroke-linecap="square" stroke-miterlimit="10" xmlns:xlink="http://www.w3.org/1999/xlink" xmlns="http://www.w3.org/2000/svg"><clipPath id="p.0"><path d="m0 0l960.0 0l0 720.0l-960.0 0l0 -720.0z" clip-rule="nonzero"/></clipPath><g clip-path="url(#p.0)"><path fill="#000000" fill-opacity="0.0" d="m0 0l960.0 0l0 720.0l-960.0 0z" fill-rule="evenodd"/><path fill="#3d85c6" d="m282.6299 353.27298l0 0c0 -108.49135 88.3656 -196.44096 197.37009 -196.44096l0 0c52.345825 0 102.54767 20.696396 139.5617 57.536224c37.0141 36.83983 57.80835 86.80534 57.80835 138.90474l0 0c0 108.49133 -88.3656 196.44095 -197.37006 196.44095l0 0c-109.004486 0 -197.37009 -87.949615 -197.37009 -196.44095z" fill-rule="evenodd"/><path fill="#cfe2f3" d="m369.20734 353.26773l0 0c0 -54.40222 43.220398 -98.50395 96.53543 -98.50395l0 0c25.602814 0 50.15695 10.378067 68.260895 28.85115c18.103882 18.473053 28.274536 43.527924 28.274536 69.6528l0 0c0 54.40222 -43.220398 98.50394 -96.53543 98.50394l0 0c-53.315033 0 -96.53543 -44.101715 -96.53543 -98.50394z" fill-rule="evenodd"/><path fill="#cfe2f3" d="m523.07086 254.76378l50.80316 0l0 201.76378l-50.80316 0z" fill-rule="evenodd"/><path fill="#3d85c6" d="m404.26248 353.27298l0 0c0 -33.95465 27.525665 -61.480316 61.480286 -61.480316l0 0c16.305603 0 31.94336 6.477356 43.473175 18.007141c11.529785 11.529816 18.007141 27.167572 18.007141 43.473175l0 0c0 33.95462 -27.525665 61.480316 -61.480316 61.480316l0 0c-33.95462 0 -61.480286 -27.525696 -61.480286 -61.480316z" fill-rule="evenodd"/></g></svg>