<svg version="1.1" xmlns="http://www.w3.org/2000/svg" xmlns:xlink="http://www.w3.org/1999/xlink" width="127.30413" height="127.75313" viewBox="0,0,127.30413,127.75313"><g transform="translate(-182.27054,-122.05391)"><g data-paper-data="{&quot;isPaintingLayer&quot;:true}" fill-rule="nonzero" stroke-linecap="butt" stroke-linejoin="miter" stroke-miterlimit="10" stroke-dasharray="" stroke-dashoffset="0" style="mix-blend-mode: normal"><path d="M182.27055,185.93048c0,-35.27805 28.498,-63.87657 63.65207,-63.87657c35.15407,0 63.65206,28.59851 63.65206,63.87657c0,35.27805 -28.498,63.87656 -63.65206,63.87656c-35.15407,0 -63.65207,-28.59851 -63.65207,-63.87656z" fill="#3097f2" stroke="none" stroke-width="0"/><path d="M201.24624,186.20616c0,-22.38116 17.77723,-40.52468 39.70657,-40.52468c21.92933,0 39.70657,18.14352 39.70657,40.52468c0,22.38116 -17.77723,40.52468 -39.70657,40.52468c-21.92933,0 -39.70657,-18.14351 -39.70657,-40.52468z" fill="none" stroke="#ffffff" stroke-width="9.5"/><path d="M283.53923,222.67983v-72.57482h0.81432v72.57482z" fill="none" stroke="#ffffff" stroke-width="9.5"/></g></g></svg>