<svg version="1.1" xmlns="http://www.w3.org/2000/svg" xmlns:xlink="http://www.w3.org/1999/xlink" width="99.27044" height="99.30885" viewBox="0,0,99.27044,99.30885"><g transform="translate(-182.27055,-122.05392)"><g data-paper-data="{&quot;isPaintingLayer&quot;:true}" fill-rule="nonzero" stroke-linecap="butt" stroke-linejoin="miter" stroke-miterlimit="10" stroke-dasharray="" stroke-dashoffset="0" style="mix-blend-mode: normal"><path d="M182.27055,171.70834c0,-27.42338 22.22244,-49.65443 49.63522,-49.65443c27.41278,0 49.63522,22.23104 49.63522,49.65443c0,27.42338 -22.22244,49.65443 -49.63522,49.65443c-27.41278,0 -49.63522,-22.23104 -49.63522,-49.65443z" fill="#3097f2" stroke="none" stroke-width="0"/><path d="M199.22284,171.92264c0,-17.39799 13.8625,-31.50185 30.96277,-31.50185c17.10026,0 30.96277,14.10386 30.96277,31.50185c0,17.39799 -13.8625,31.50185 -30.96277,31.50185c-17.10026,0 -30.96277,-14.10386 -30.96277,-31.50185z" fill="none" stroke="#ffffff" stroke-width="9.5"/><path d="M262.47039,200.27544v-56.41601h0.635v56.41601z" fill="none" stroke="#ffffff" stroke-width="9.5"/></g></g></svg>